<?xml version="1.0" standalone="no"?>
<!DOCTYPE svg PUBLIC "-//W3C//DTD SVG 20010904//EN"
 "http://www.w3.org/TR/2001/REC-SVG-20010904/DTD/svg10.dtd">
<svg version="1.0" xmlns="http://www.w3.org/2000/svg"
 width="64.000000pt" height="64.000000pt" viewBox="0 0 64.000000 64.000000"
 preserveAspectRatio="xMidYMid meet">

<g transform="translate(0.000000,64.000000) scale(0.100000,-0.100000)"
fill="#000000" stroke="none">
<path d="M263 580 c-157 -37 -249 -217 -185 -362 22 -50 77 -110 122 -133 149
-77 336 11 381 179 9 34 8 42 -6 52 -14 11 -24 9 -53 -7 -50 -26 -111 -25
-153 4 -73 49 -98 129 -63 202 16 35 16 67 -1 71 -5 1 -24 -2 -42 -6z m-21
-122 c-4 -79 25 -139 87 -183 38 -27 51 -30 117 -30 41 0 74 -3 74 -6 0 -3
-13 -24 -29 -46 -61 -84 -174 -107 -272 -55 -133 69 -147 265 -26 353 22 16
43 29 46 29 3 0 5 -28 3 -62z"/>
</g>
</svg>
