<?xml version="1.0" encoding="UTF-8" standalone="no"?>
<svg
   xmlns:dc="http://purl.org/dc/elements/1.1/"
   xmlns:cc="http://creativecommons.org/ns#"
   xmlns:rdf="http://www.w3.org/1999/02/22-rdf-syntax-ns#"
   xmlns:svg="http://www.w3.org/2000/svg"
   xmlns="http://www.w3.org/2000/svg"
   id="svg6"
   version="1.1"
   fill="#2b0000"
   height="20"
   width="20">
  <metadata
     id="metadata12">
    <rdf:RDF>
      <cc:Work
         rdf:about="">
        <dc:format>image/svg+xml</dc:format>
        <dc:type
           rdf:resource="http://purl.org/dc/dcmitype/StillImage" />
        <dc:title></dc:title>
      </cc:Work>
    </rdf:RDF>
  </metadata>
  <defs
     id="defs10" />
  <path
     style="stroke-width:0.0424166"
     id="path2"
     d="m 8.9617493,1.6304147 c -3.6087143,0 -6.5341398,2.9254255 -6.5341823,6.5341403 -4.25e-5,3.608714 2.925468,6.534182 6.5341823,6.534182 3.6087147,0 6.5341827,-2.925468 6.5341827,-6.534182 0,-3.6087148 -2.925468,-6.5341403 -6.5341827,-6.5341403 z m 0,1.1357456 c 1.4619707,0 2.8640917,0.5687629 3.8978677,1.5811601 1.033775,1.0123982 1.614543,2.3855066 1.614543,3.8172346 0,1.431727 -0.580768,2.804836 -1.614543,3.817233 -1.033776,1.012398 -2.435897,1.581162 -3.8978677,1.581162 -3.0444046,0 -5.5123682,-2.416937 -5.5123682,-5.398395 0,-2.9814591 2.4679636,-5.3983523 5.5123682,-5.3983947 z" />
  <rect
     style="stroke-width:0.0424166"
     id="rect4"
     width="7.3392053"
     height="1.5340787"
     x="17.808762"
     y="-2.0589159"
     transform="matrix(0.65316801,0.75721301,-0.60689104,0.79478505,0,0)"
     rx="1.4103074"
     ry="0.76701814" />
</svg>
